<mxfile host="Electron" modified="2021-10-04T12:18:10.968Z" agent="5.0 (Windows NT 10.0; Win64; x64) AppleWebKit/537.36 (KHTML, like Gecko) draw.io/15.3.8 Chrome/94.0.4606.51 Electron/15.0.0 Safari/537.36" etag="THD3bOPU2yZzakxfcrmS" compressed="false" version="15.4.1" type="device">
  <diagram id="2Aw6EhE4gONlxI8GTRCS" name="Page-1">
    <mxGraphModel dx="1010" dy="599" grid="1" gridSize="10" guides="1" tooltips="1" connect="1" arrows="1" fold="1" page="1" pageScale="1" pageWidth="827" pageHeight="1169" background="none" math="0" shadow="0">
      <root>
        <mxCell id="0" />
        <mxCell id="1" parent="0" />
        <mxCell id="DfJdz6nxXRsgghd-bTnM-1" value="" style="rounded=1;whiteSpace=wrap;html=1;" parent="1" vertex="1">
          <mxGeometry x="48" y="189" width="70" height="40" as="geometry" />
        </mxCell>
        <mxCell id="DfJdz6nxXRsgghd-bTnM-2" value="" style="rounded=1;whiteSpace=wrap;html=1;" parent="1" vertex="1">
          <mxGeometry x="118" y="189" width="70" height="40" as="geometry" />
        </mxCell>
        <mxCell id="DfJdz6nxXRsgghd-bTnM-3" value="" style="rounded=1;whiteSpace=wrap;html=1;" parent="1" vertex="1">
          <mxGeometry x="188" y="189" width="70" height="40" as="geometry" />
        </mxCell>
        <mxCell id="DfJdz6nxXRsgghd-bTnM-4" value="&lt;b&gt;&lt;font style=&quot;font-size: 18px&quot;&gt;5&lt;/font&gt;&lt;/b&gt;" style="rounded=1;whiteSpace=wrap;html=1;strokeWidth=2;sketch=1;" parent="1" vertex="1">
          <mxGeometry x="258" y="189" width="70" height="40" as="geometry" />
        </mxCell>
        <mxCell id="DfJdz6nxXRsgghd-bTnM-5" value="&lt;font style=&quot;font-size: 18px&quot;&gt;&lt;b&gt;9&lt;/b&gt;&lt;/font&gt;" style="rounded=1;whiteSpace=wrap;html=1;strokeWidth=2;sketch=1;fillColor=#f8cecc;strokeColor=#b85450;" parent="1" vertex="1">
          <mxGeometry x="328" y="189" width="70" height="40" as="geometry" />
        </mxCell>
        <mxCell id="DfJdz6nxXRsgghd-bTnM-6" value="&lt;b&gt;&lt;font style=&quot;font-size: 18px&quot;&gt;12&lt;/font&gt;&lt;/b&gt;" style="rounded=1;whiteSpace=wrap;html=1;strokeWidth=2;sketch=1;" parent="1" vertex="1">
          <mxGeometry x="398" y="189" width="70" height="40" as="geometry" />
        </mxCell>
        <mxCell id="DfJdz6nxXRsgghd-bTnM-9" value="&lt;font style=&quot;font-size: 18px&quot;&gt;&lt;b&gt;-1&lt;/b&gt;&lt;/font&gt;" style="rounded=1;whiteSpace=wrap;html=1;strokeWidth=2;sketch=1;" parent="1" vertex="1">
          <mxGeometry x="48" y="189" width="70" height="40" as="geometry" />
        </mxCell>
        <mxCell id="DfJdz6nxXRsgghd-bTnM-10" value="&lt;font style=&quot;font-size: 18px&quot;&gt;&lt;b&gt;0&lt;/b&gt;&lt;/font&gt;" style="rounded=1;whiteSpace=wrap;html=1;strokeWidth=2;sketch=1;" parent="1" vertex="1">
          <mxGeometry x="118" y="189" width="70" height="40" as="geometry" />
        </mxCell>
        <mxCell id="DfJdz6nxXRsgghd-bTnM-11" value="&lt;font style=&quot;font-size: 18px&quot;&gt;&lt;b&gt;3&lt;/b&gt;&lt;/font&gt;" style="rounded=1;whiteSpace=wrap;html=1;strokeWidth=2;sketch=1;" parent="1" vertex="1">
          <mxGeometry x="188" y="189" width="70" height="40" as="geometry" />
        </mxCell>
        <mxCell id="DfJdz6nxXRsgghd-bTnM-13" value="" style="shape=flexArrow;endArrow=classic;html=1;strokeWidth=2;sketch=1;endWidth=15;endSize=3.99;" parent="1" edge="1">
          <mxGeometry width="50" height="50" relative="1" as="geometry">
            <mxPoint x="83" y="136" as="sourcePoint" />
            <mxPoint x="82.5" y="176" as="targetPoint" />
            <Array as="points">
              <mxPoint x="83" y="142" />
            </Array>
          </mxGeometry>
        </mxCell>
        <mxCell id="DfJdz6nxXRsgghd-bTnM-14" value="" style="shape=flexArrow;endArrow=classic;html=1;strokeWidth=2;sketch=1;endWidth=15;endSize=3.99;" parent="1" edge="1">
          <mxGeometry width="50" height="50" relative="1" as="geometry">
            <mxPoint x="507" y="142" as="sourcePoint" />
            <mxPoint x="506.5" y="182" as="targetPoint" />
          </mxGeometry>
        </mxCell>
        <mxCell id="DfJdz6nxXRsgghd-bTnM-15" value="" style="shape=flexArrow;endArrow=classic;html=1;strokeWidth=2;sketch=1;endWidth=15;endSize=3.99;" parent="1" edge="1">
          <mxGeometry width="50" height="50" relative="1" as="geometry">
            <mxPoint x="287.5" y="295" as="sourcePoint" />
            <mxPoint x="287.5" y="255" as="targetPoint" />
            <Array as="points">
              <mxPoint x="287.5" y="285" />
            </Array>
          </mxGeometry>
        </mxCell>
        <mxCell id="DfJdz6nxXRsgghd-bTnM-16" value="&lt;b&gt;&lt;font style=&quot;font-size: 18px&quot;&gt;left&lt;/font&gt;&lt;/b&gt;" style="text;html=1;strokeColor=none;fillColor=none;align=center;verticalAlign=middle;whiteSpace=wrap;rounded=0;sketch=1;" parent="1" vertex="1">
          <mxGeometry x="63" y="110" width="40" height="20" as="geometry" />
        </mxCell>
        <mxCell id="DfJdz6nxXRsgghd-bTnM-17" value="&lt;b&gt;&lt;font style=&quot;font-size: 18px&quot;&gt;right&lt;/font&gt;&lt;/b&gt;" style="text;html=1;strokeColor=none;fillColor=none;align=center;verticalAlign=middle;whiteSpace=wrap;rounded=0;sketch=1;" parent="1" vertex="1">
          <mxGeometry x="487" y="116" width="40" height="20" as="geometry" />
        </mxCell>
        <mxCell id="DfJdz6nxXRsgghd-bTnM-18" value="&lt;b&gt;&lt;font style=&quot;font-size: 18px&quot;&gt;mid&lt;/font&gt;&lt;/b&gt;" style="text;html=1;strokeColor=none;fillColor=none;align=center;verticalAlign=middle;whiteSpace=wrap;rounded=0;sketch=1;" parent="1" vertex="1">
          <mxGeometry x="268" y="300" width="40" height="20" as="geometry" />
        </mxCell>
        <mxCell id="DfJdz6nxXRsgghd-bTnM-19" value="&lt;b&gt;0&lt;/b&gt;" style="text;html=1;strokeColor=none;fillColor=none;align=center;verticalAlign=middle;whiteSpace=wrap;rounded=0;sketch=1;" parent="1" vertex="1">
          <mxGeometry x="63" y="229" width="40" height="20" as="geometry" />
        </mxCell>
        <mxCell id="DfJdz6nxXRsgghd-bTnM-20" value="&lt;b&gt;1&lt;/b&gt;" style="text;html=1;strokeColor=none;fillColor=none;align=center;verticalAlign=middle;whiteSpace=wrap;rounded=0;sketch=1;" parent="1" vertex="1">
          <mxGeometry x="133" y="229" width="40" height="20" as="geometry" />
        </mxCell>
        <mxCell id="DfJdz6nxXRsgghd-bTnM-21" value="&lt;b&gt;2&lt;/b&gt;" style="text;html=1;strokeColor=none;fillColor=none;align=center;verticalAlign=middle;whiteSpace=wrap;rounded=0;sketch=1;" parent="1" vertex="1">
          <mxGeometry x="203" y="229" width="40" height="20" as="geometry" />
        </mxCell>
        <mxCell id="DfJdz6nxXRsgghd-bTnM-22" value="&lt;b&gt;3&lt;/b&gt;" style="text;html=1;strokeColor=none;fillColor=none;align=center;verticalAlign=middle;whiteSpace=wrap;rounded=0;sketch=1;" parent="1" vertex="1">
          <mxGeometry x="268" y="229" width="40" height="20" as="geometry" />
        </mxCell>
        <mxCell id="DfJdz6nxXRsgghd-bTnM-23" value="&lt;b&gt;4&lt;/b&gt;" style="text;html=1;strokeColor=none;fillColor=none;align=center;verticalAlign=middle;whiteSpace=wrap;rounded=0;sketch=1;" parent="1" vertex="1">
          <mxGeometry x="343" y="229" width="40" height="20" as="geometry" />
        </mxCell>
        <mxCell id="DfJdz6nxXRsgghd-bTnM-24" value="&lt;b&gt;5&lt;/b&gt;" style="text;html=1;strokeColor=none;fillColor=none;align=center;verticalAlign=middle;whiteSpace=wrap;rounded=0;sketch=1;" parent="1" vertex="1">
          <mxGeometry x="413" y="229" width="40" height="20" as="geometry" />
        </mxCell>
        <mxCell id="DfJdz6nxXRsgghd-bTnM-25" value="&lt;span style=&quot;font-size: 18px&quot;&gt;&lt;b&gt;nums[mid]&amp;lt;target&lt;/b&gt;&lt;/span&gt;" style="text;html=1;strokeColor=none;fillColor=none;align=center;verticalAlign=middle;whiteSpace=wrap;rounded=0;sketch=1;" parent="1" vertex="1">
          <mxGeometry x="552" y="192" width="176" height="29" as="geometry" />
        </mxCell>
        <mxCell id="DfJdz6nxXRsgghd-bTnM-50" value="&lt;b&gt;&lt;font style=&quot;font-size: 18px&quot;&gt;13&lt;/font&gt;&lt;/b&gt;" style="rounded=1;whiteSpace=wrap;html=1;strokeWidth=2;sketch=1;" parent="1" vertex="1">
          <mxGeometry x="468" y="189" width="70" height="40" as="geometry" />
        </mxCell>
        <mxCell id="DfJdz6nxXRsgghd-bTnM-53" value="&lt;b&gt;6&lt;/b&gt;" style="text;html=1;strokeColor=none;fillColor=none;align=center;verticalAlign=middle;whiteSpace=wrap;rounded=0;sketch=1;" parent="1" vertex="1">
          <mxGeometry x="487" y="229" width="40" height="20" as="geometry" />
        </mxCell>
        <mxCell id="DfJdz6nxXRsgghd-bTnM-57" value="" style="rounded=1;whiteSpace=wrap;html=1;" parent="1" vertex="1">
          <mxGeometry x="44" y="445" width="70" height="40" as="geometry" />
        </mxCell>
        <mxCell id="DfJdz6nxXRsgghd-bTnM-58" value="" style="rounded=1;whiteSpace=wrap;html=1;" parent="1" vertex="1">
          <mxGeometry x="114" y="445" width="70" height="40" as="geometry" />
        </mxCell>
        <mxCell id="DfJdz6nxXRsgghd-bTnM-59" value="" style="rounded=1;whiteSpace=wrap;html=1;" parent="1" vertex="1">
          <mxGeometry x="184" y="445" width="70" height="40" as="geometry" />
        </mxCell>
        <mxCell id="DfJdz6nxXRsgghd-bTnM-60" value="&lt;b&gt;&lt;font style=&quot;font-size: 18px&quot;&gt;5&lt;/font&gt;&lt;/b&gt;" style="rounded=1;whiteSpace=wrap;html=1;strokeWidth=2;sketch=1;" parent="1" vertex="1">
          <mxGeometry x="254" y="445" width="70" height="40" as="geometry" />
        </mxCell>
        <mxCell id="DfJdz6nxXRsgghd-bTnM-61" value="&lt;font style=&quot;font-size: 18px&quot;&gt;&lt;b&gt;9&lt;/b&gt;&lt;/font&gt;" style="rounded=1;whiteSpace=wrap;html=1;strokeWidth=2;sketch=1;fillColor=#f8cecc;strokeColor=#b85450;" parent="1" vertex="1">
          <mxGeometry x="324" y="445" width="70" height="40" as="geometry" />
        </mxCell>
        <mxCell id="DfJdz6nxXRsgghd-bTnM-62" value="&lt;b&gt;&lt;font style=&quot;font-size: 18px&quot;&gt;12&lt;/font&gt;&lt;/b&gt;" style="rounded=1;whiteSpace=wrap;html=1;strokeWidth=2;sketch=1;" parent="1" vertex="1">
          <mxGeometry x="394" y="445" width="70" height="40" as="geometry" />
        </mxCell>
        <mxCell id="DfJdz6nxXRsgghd-bTnM-63" value="&lt;font style=&quot;font-size: 18px&quot;&gt;&lt;b&gt;-1&lt;/b&gt;&lt;/font&gt;" style="rounded=1;whiteSpace=wrap;html=1;strokeWidth=2;sketch=1;" parent="1" vertex="1">
          <mxGeometry x="44" y="445" width="70" height="40" as="geometry" />
        </mxCell>
        <mxCell id="DfJdz6nxXRsgghd-bTnM-64" value="&lt;font style=&quot;font-size: 18px&quot;&gt;&lt;b&gt;0&lt;/b&gt;&lt;/font&gt;" style="rounded=1;whiteSpace=wrap;html=1;strokeWidth=2;sketch=1;" parent="1" vertex="1">
          <mxGeometry x="114" y="445" width="70" height="40" as="geometry" />
        </mxCell>
        <mxCell id="DfJdz6nxXRsgghd-bTnM-65" value="&lt;font style=&quot;font-size: 18px&quot;&gt;&lt;b&gt;3&lt;/b&gt;&lt;/font&gt;" style="rounded=1;whiteSpace=wrap;html=1;strokeWidth=2;sketch=1;" parent="1" vertex="1">
          <mxGeometry x="184" y="445" width="70" height="40" as="geometry" />
        </mxCell>
        <mxCell id="DfJdz6nxXRsgghd-bTnM-66" value="" style="shape=flexArrow;endArrow=classic;html=1;strokeWidth=2;sketch=1;endWidth=15;endSize=3.99;" parent="1" edge="1">
          <mxGeometry width="50" height="50" relative="1" as="geometry">
            <mxPoint x="359" y="394" as="sourcePoint" />
            <mxPoint x="358.5" y="434" as="targetPoint" />
            <Array as="points">
              <mxPoint x="359" y="400" />
            </Array>
          </mxGeometry>
        </mxCell>
        <mxCell id="DfJdz6nxXRsgghd-bTnM-67" value="" style="shape=flexArrow;endArrow=classic;html=1;strokeWidth=2;sketch=1;endWidth=15;endSize=3.99;" parent="1" edge="1">
          <mxGeometry width="50" height="50" relative="1" as="geometry">
            <mxPoint x="503" y="398" as="sourcePoint" />
            <mxPoint x="502.5" y="438" as="targetPoint" />
          </mxGeometry>
        </mxCell>
        <mxCell id="DfJdz6nxXRsgghd-bTnM-68" value="" style="shape=flexArrow;endArrow=classic;html=1;strokeWidth=2;sketch=1;endWidth=15;endSize=3.99;" parent="1" edge="1">
          <mxGeometry width="50" height="50" relative="1" as="geometry">
            <mxPoint x="428.5" y="545" as="sourcePoint" />
            <mxPoint x="428.5" y="505" as="targetPoint" />
            <Array as="points">
              <mxPoint x="428.5" y="535" />
            </Array>
          </mxGeometry>
        </mxCell>
        <mxCell id="DfJdz6nxXRsgghd-bTnM-69" value="&lt;b&gt;&lt;font style=&quot;font-size: 18px&quot;&gt;left&lt;/font&gt;&lt;/b&gt;" style="text;html=1;strokeColor=none;fillColor=none;align=center;verticalAlign=middle;whiteSpace=wrap;rounded=0;sketch=1;" parent="1" vertex="1">
          <mxGeometry x="339" y="372" width="40" height="20" as="geometry" />
        </mxCell>
        <mxCell id="DfJdz6nxXRsgghd-bTnM-70" value="&lt;b&gt;&lt;font style=&quot;font-size: 18px&quot;&gt;right&lt;/font&gt;&lt;/b&gt;" style="text;html=1;strokeColor=none;fillColor=none;align=center;verticalAlign=middle;whiteSpace=wrap;rounded=0;sketch=1;" parent="1" vertex="1">
          <mxGeometry x="483" y="372" width="40" height="20" as="geometry" />
        </mxCell>
        <mxCell id="DfJdz6nxXRsgghd-bTnM-71" value="&lt;b&gt;&lt;font style=&quot;font-size: 18px&quot;&gt;mid&lt;/font&gt;&lt;/b&gt;" style="text;html=1;strokeColor=none;fillColor=none;align=center;verticalAlign=middle;whiteSpace=wrap;rounded=0;sketch=1;" parent="1" vertex="1">
          <mxGeometry x="409" y="556" width="40" height="20" as="geometry" />
        </mxCell>
        <mxCell id="DfJdz6nxXRsgghd-bTnM-72" value="&lt;b&gt;0&lt;/b&gt;" style="text;html=1;strokeColor=none;fillColor=none;align=center;verticalAlign=middle;whiteSpace=wrap;rounded=0;sketch=1;" parent="1" vertex="1">
          <mxGeometry x="59" y="485" width="40" height="20" as="geometry" />
        </mxCell>
        <mxCell id="DfJdz6nxXRsgghd-bTnM-73" value="&lt;b&gt;1&lt;/b&gt;" style="text;html=1;strokeColor=none;fillColor=none;align=center;verticalAlign=middle;whiteSpace=wrap;rounded=0;sketch=1;" parent="1" vertex="1">
          <mxGeometry x="129" y="485" width="40" height="20" as="geometry" />
        </mxCell>
        <mxCell id="DfJdz6nxXRsgghd-bTnM-74" value="&lt;b&gt;2&lt;/b&gt;" style="text;html=1;strokeColor=none;fillColor=none;align=center;verticalAlign=middle;whiteSpace=wrap;rounded=0;sketch=1;" parent="1" vertex="1">
          <mxGeometry x="199" y="485" width="40" height="20" as="geometry" />
        </mxCell>
        <mxCell id="DfJdz6nxXRsgghd-bTnM-75" value="&lt;b&gt;3&lt;/b&gt;" style="text;html=1;strokeColor=none;fillColor=none;align=center;verticalAlign=middle;whiteSpace=wrap;rounded=0;sketch=1;" parent="1" vertex="1">
          <mxGeometry x="264" y="485" width="40" height="20" as="geometry" />
        </mxCell>
        <mxCell id="DfJdz6nxXRsgghd-bTnM-76" value="&lt;b&gt;4&lt;/b&gt;" style="text;html=1;strokeColor=none;fillColor=none;align=center;verticalAlign=middle;whiteSpace=wrap;rounded=0;sketch=1;" parent="1" vertex="1">
          <mxGeometry x="339" y="485" width="40" height="20" as="geometry" />
        </mxCell>
        <mxCell id="DfJdz6nxXRsgghd-bTnM-77" value="&lt;b&gt;5&lt;/b&gt;" style="text;html=1;strokeColor=none;fillColor=none;align=center;verticalAlign=middle;whiteSpace=wrap;rounded=0;sketch=1;" parent="1" vertex="1">
          <mxGeometry x="409" y="485" width="40" height="20" as="geometry" />
        </mxCell>
        <mxCell id="DfJdz6nxXRsgghd-bTnM-78" value="&lt;span style=&quot;font-size: 18px&quot;&gt;&lt;b&gt;nums[mid]&amp;gt;target&lt;/b&gt;&lt;/span&gt;" style="text;html=1;strokeColor=none;fillColor=none;align=center;verticalAlign=middle;whiteSpace=wrap;rounded=0;sketch=1;" parent="1" vertex="1">
          <mxGeometry x="549" y="448" width="176" height="29" as="geometry" />
        </mxCell>
        <mxCell id="DfJdz6nxXRsgghd-bTnM-80" value="&lt;b&gt;&lt;font style=&quot;font-size: 18px&quot;&gt;13&lt;/font&gt;&lt;/b&gt;" style="rounded=1;whiteSpace=wrap;html=1;strokeWidth=2;sketch=1;" parent="1" vertex="1">
          <mxGeometry x="464" y="445" width="70" height="40" as="geometry" />
        </mxCell>
        <mxCell id="DfJdz6nxXRsgghd-bTnM-81" value="&lt;b&gt;6&lt;/b&gt;" style="text;html=1;strokeColor=none;fillColor=none;align=center;verticalAlign=middle;whiteSpace=wrap;rounded=0;sketch=1;" parent="1" vertex="1">
          <mxGeometry x="483" y="485" width="40" height="20" as="geometry" />
        </mxCell>
        <mxCell id="DfJdz6nxXRsgghd-bTnM-85" value="" style="rounded=1;whiteSpace=wrap;html=1;" parent="1" vertex="1">
          <mxGeometry x="44" y="697" width="70" height="40" as="geometry" />
        </mxCell>
        <mxCell id="DfJdz6nxXRsgghd-bTnM-86" value="" style="rounded=1;whiteSpace=wrap;html=1;" parent="1" vertex="1">
          <mxGeometry x="114" y="697" width="70" height="40" as="geometry" />
        </mxCell>
        <mxCell id="DfJdz6nxXRsgghd-bTnM-87" value="" style="rounded=1;whiteSpace=wrap;html=1;" parent="1" vertex="1">
          <mxGeometry x="184" y="697" width="70" height="40" as="geometry" />
        </mxCell>
        <mxCell id="DfJdz6nxXRsgghd-bTnM-88" value="&lt;b&gt;&lt;font style=&quot;font-size: 18px&quot;&gt;5&lt;/font&gt;&lt;/b&gt;" style="rounded=1;whiteSpace=wrap;html=1;strokeWidth=2;sketch=1;" parent="1" vertex="1">
          <mxGeometry x="254" y="697" width="70" height="40" as="geometry" />
        </mxCell>
        <mxCell id="DfJdz6nxXRsgghd-bTnM-89" value="&lt;font style=&quot;font-size: 18px&quot;&gt;&lt;b&gt;9&lt;/b&gt;&lt;/font&gt;" style="rounded=1;whiteSpace=wrap;html=1;strokeWidth=2;sketch=1;fillColor=#f8cecc;strokeColor=#b85450;" parent="1" vertex="1">
          <mxGeometry x="324" y="697" width="70" height="40" as="geometry" />
        </mxCell>
        <mxCell id="DfJdz6nxXRsgghd-bTnM-90" value="&lt;b&gt;&lt;font style=&quot;font-size: 18px&quot;&gt;12&lt;/font&gt;&lt;/b&gt;" style="rounded=1;whiteSpace=wrap;html=1;strokeWidth=2;sketch=1;" parent="1" vertex="1">
          <mxGeometry x="394" y="697" width="70" height="40" as="geometry" />
        </mxCell>
        <mxCell id="DfJdz6nxXRsgghd-bTnM-91" value="&lt;font style=&quot;font-size: 18px&quot;&gt;&lt;b&gt;-1&lt;/b&gt;&lt;/font&gt;" style="rounded=1;whiteSpace=wrap;html=1;strokeWidth=2;sketch=1;" parent="1" vertex="1">
          <mxGeometry x="44" y="697" width="70" height="40" as="geometry" />
        </mxCell>
        <mxCell id="DfJdz6nxXRsgghd-bTnM-92" value="&lt;font style=&quot;font-size: 18px&quot;&gt;&lt;b&gt;0&lt;/b&gt;&lt;/font&gt;" style="rounded=1;whiteSpace=wrap;html=1;strokeWidth=2;sketch=1;" parent="1" vertex="1">
          <mxGeometry x="114" y="697" width="70" height="40" as="geometry" />
        </mxCell>
        <mxCell id="DfJdz6nxXRsgghd-bTnM-93" value="&lt;font style=&quot;font-size: 18px&quot;&gt;&lt;b&gt;3&lt;/b&gt;&lt;/font&gt;" style="rounded=1;whiteSpace=wrap;html=1;strokeWidth=2;sketch=1;" parent="1" vertex="1">
          <mxGeometry x="184" y="697" width="70" height="40" as="geometry" />
        </mxCell>
        <mxCell id="DfJdz6nxXRsgghd-bTnM-94" value="" style="shape=flexArrow;endArrow=classic;html=1;strokeWidth=2;sketch=1;endWidth=15;endSize=3.99;" parent="1" edge="1">
          <mxGeometry width="50" height="50" relative="1" as="geometry">
            <mxPoint x="349.5" y="651" as="sourcePoint" />
            <mxPoint x="349" y="691" as="targetPoint" />
            <Array as="points">
              <mxPoint x="349.5" y="657" />
            </Array>
          </mxGeometry>
        </mxCell>
        <mxCell id="DfJdz6nxXRsgghd-bTnM-95" value="" style="shape=flexArrow;endArrow=classic;html=1;strokeWidth=2;sketch=1;endWidth=15;endSize=3.99;" parent="1" edge="1">
          <mxGeometry width="50" height="50" relative="1" as="geometry">
            <mxPoint x="382.5" y="650" as="sourcePoint" />
            <mxPoint x="382" y="690" as="targetPoint" />
          </mxGeometry>
        </mxCell>
        <mxCell id="DfJdz6nxXRsgghd-bTnM-96" value="" style="shape=flexArrow;endArrow=classic;html=1;strokeWidth=2;sketch=1;endWidth=15;endSize=3.99;" parent="1" edge="1">
          <mxGeometry width="50" height="50" relative="1" as="geometry">
            <mxPoint x="362.5" y="801" as="sourcePoint" />
            <mxPoint x="362.5" y="761" as="targetPoint" />
            <Array as="points">
              <mxPoint x="362.5" y="791" />
            </Array>
          </mxGeometry>
        </mxCell>
        <mxCell id="DfJdz6nxXRsgghd-bTnM-97" value="&lt;b&gt;&lt;font style=&quot;font-size: 18px&quot;&gt;left&lt;/font&gt;&lt;/b&gt;" style="text;html=1;strokeColor=none;fillColor=none;align=center;verticalAlign=middle;whiteSpace=wrap;rounded=0;sketch=1;" parent="1" vertex="1">
          <mxGeometry x="324" y="624" width="40" height="20" as="geometry" />
        </mxCell>
        <mxCell id="DfJdz6nxXRsgghd-bTnM-98" value="&lt;b&gt;&lt;font style=&quot;font-size: 18px&quot;&gt;right&lt;/font&gt;&lt;/b&gt;" style="text;html=1;strokeColor=none;fillColor=none;align=center;verticalAlign=middle;whiteSpace=wrap;rounded=0;sketch=1;" parent="1" vertex="1">
          <mxGeometry x="369" y="624" width="40" height="20" as="geometry" />
        </mxCell>
        <mxCell id="DfJdz6nxXRsgghd-bTnM-99" value="&lt;b&gt;&lt;font style=&quot;font-size: 18px&quot;&gt;mid&lt;/font&gt;&lt;/b&gt;" style="text;html=1;strokeColor=none;fillColor=none;align=center;verticalAlign=middle;whiteSpace=wrap;rounded=0;sketch=1;" parent="1" vertex="1">
          <mxGeometry x="343" y="813" width="40" height="20" as="geometry" />
        </mxCell>
        <mxCell id="DfJdz6nxXRsgghd-bTnM-100" value="&lt;b&gt;0&lt;/b&gt;" style="text;html=1;strokeColor=none;fillColor=none;align=center;verticalAlign=middle;whiteSpace=wrap;rounded=0;sketch=1;" parent="1" vertex="1">
          <mxGeometry x="59" y="737" width="40" height="20" as="geometry" />
        </mxCell>
        <mxCell id="DfJdz6nxXRsgghd-bTnM-101" value="&lt;b&gt;1&lt;/b&gt;" style="text;html=1;strokeColor=none;fillColor=none;align=center;verticalAlign=middle;whiteSpace=wrap;rounded=0;sketch=1;" parent="1" vertex="1">
          <mxGeometry x="129" y="737" width="40" height="20" as="geometry" />
        </mxCell>
        <mxCell id="DfJdz6nxXRsgghd-bTnM-102" value="&lt;b&gt;2&lt;/b&gt;" style="text;html=1;strokeColor=none;fillColor=none;align=center;verticalAlign=middle;whiteSpace=wrap;rounded=0;sketch=1;" parent="1" vertex="1">
          <mxGeometry x="199" y="737" width="40" height="20" as="geometry" />
        </mxCell>
        <mxCell id="DfJdz6nxXRsgghd-bTnM-103" value="&lt;b&gt;3&lt;/b&gt;" style="text;html=1;strokeColor=none;fillColor=none;align=center;verticalAlign=middle;whiteSpace=wrap;rounded=0;sketch=1;" parent="1" vertex="1">
          <mxGeometry x="264" y="737" width="40" height="20" as="geometry" />
        </mxCell>
        <mxCell id="DfJdz6nxXRsgghd-bTnM-104" value="&lt;b&gt;4&lt;/b&gt;" style="text;html=1;strokeColor=none;fillColor=none;align=center;verticalAlign=middle;whiteSpace=wrap;rounded=0;sketch=1;" parent="1" vertex="1">
          <mxGeometry x="339" y="737" width="40" height="20" as="geometry" />
        </mxCell>
        <mxCell id="DfJdz6nxXRsgghd-bTnM-105" value="&lt;b&gt;5&lt;/b&gt;" style="text;html=1;strokeColor=none;fillColor=none;align=center;verticalAlign=middle;whiteSpace=wrap;rounded=0;sketch=1;" parent="1" vertex="1">
          <mxGeometry x="409" y="737" width="40" height="20" as="geometry" />
        </mxCell>
        <mxCell id="DfJdz6nxXRsgghd-bTnM-106" value="&lt;span style=&quot;font-size: 18px&quot;&gt;&lt;b&gt;nums[mid]==target&lt;/b&gt;&lt;/span&gt;" style="text;html=1;strokeColor=none;fillColor=none;align=center;verticalAlign=middle;whiteSpace=wrap;rounded=0;sketch=1;" parent="1" vertex="1">
          <mxGeometry x="549" y="700" width="176" height="29" as="geometry" />
        </mxCell>
        <mxCell id="DfJdz6nxXRsgghd-bTnM-107" value="&lt;b&gt;&lt;font style=&quot;font-size: 18px&quot;&gt;13&lt;/font&gt;&lt;/b&gt;" style="rounded=1;whiteSpace=wrap;html=1;strokeWidth=2;sketch=1;" parent="1" vertex="1">
          <mxGeometry x="464" y="697" width="70" height="40" as="geometry" />
        </mxCell>
        <mxCell id="DfJdz6nxXRsgghd-bTnM-108" value="&lt;b&gt;6&lt;/b&gt;" style="text;html=1;strokeColor=none;fillColor=none;align=center;verticalAlign=middle;whiteSpace=wrap;rounded=0;sketch=1;" parent="1" vertex="1">
          <mxGeometry x="483" y="737" width="40" height="20" as="geometry" />
        </mxCell>
      </root>
    </mxGraphModel>
  </diagram>
</mxfile>
